 <svg  version="1.0" xmlns="http://www.w3.org/2000/svg"  width="900.000000pt" height="900.000000pt" viewBox="0 0 900.000000 900.000000"  preserveAspectRatio="xMidYMid meet">  <g transform="translate(0.000000,900.000000) scale(0.100000,-0.100000)" fill="#070019" stroke="none"> <path d="M4648 6724 c-3 -5 -6 -45 -6 -89 -1 -122 -42 -200 -122 -234 -64 -28 -126 -26 -230 5 -47 14 -98 29 -115 33 -16 5 -37 11 -45 13 -8 3 -12 3 -7 0 4 -2 21 -32 37 -67 27 -57 30 -74 30 -162 0 -186 -74 -299 -220 -334 -72 -18 -284 -17 -339 1 -31 10 -45 10 -53 2 -8 -8 -4 -13 16 -18 61 -15 175 -152 219 -261 72 -180 80 -223 74 -415 -5 -179 -20 -257 -73 -383 -29 -70 -79 -165 -121 -227 -58 -87 -240 -293 -298 -338 -25 -19 -60 -50 -78 -68 -17 -19 -57 -45 -87 -58 -30 -14 -67 -32 -82 -40 -14 -8 -41 -14 -60 -14 -18 -1 -44 -7 -58 -15 -14 -8 -41 -14 -61 -15 -20 0 -39 -3 -42 -7 -9 -9 33 -53 50 -53 7 0 13 -4 13 -10 0 -18 21 -10 52 19 18 17 42 35 55 40 13 6 34 16 47 22 14 7 43 8 74 4 49 -7 72 0 114 33 18 15 83 13 83 -3 0 -5 -13 -12 -30 -16 -16 -3 -46 -15 -65 -27 -19 -11 -59 -33 -88 -48 -87 -46 -163 -114 -219 -198 -29 -44 -53 -89 -53 -100 -1 -12 -7 -32 -15 -46 -17 -30 -20 -176 -4 -235 6 -22 13 -57 16 -77 3 -21 11 -42 19 -49 8 -6 14 -19 14 -28 0 -9 14 -36 30 -61 16 -25 30 -49 30 -54 0 -4 15 -27 32 -50 18 -22 37 -47 43 -55 42 -57 264 -234 328 -261 12 -6 49 -26 82 -45 33 -19 67 -38 75 -41 36 -15 106 -50 148 -74 9 -6 23 -12 30 -15 32 -13 39 -17 67 -35 17 -11 37 -23 45 -27 8 -4 21 -13 28 -20 16 -15 42 -17 42 -3 0 6 -4 10 -9 10 -4 0 -29 16 -54 35 -25 19 -53 35 -61 35 -9 0 -16 4 -16 10 0 5 -37 28 -82 50 -46 23 -90 45 -98 50 -8 5 -22 11 -30 14 -8 4 -28 15 -45 26 -16 11 -37 23 -45 27 -30 14 -140 93 -202 144 -131 109 -213 217 -274 365 -26 62 -29 82 -32 204 -4 152 9 213 61 275 29 35 61 46 70 23 4 -10 7 -10 18 0 7 6 20 12 28 12 8 0 27 12 43 27 110 105 396 73 683 -76 117 -60 155 -85 225 -145 125 -105 199 -206 265 -361 22 -53 45 -178 45 -248 0 -95 -46 -251 -80 -272 -15 -9 -12 -35 5 -35 8 0 49 24 90 53 112 76 134 88 195 103 136 33 266 2 339 -81 83 -95 114 -176 115 -305 1 -56 6 -94 11 -93 6 1 12 10 14 20 2 10 16 37 32 61 16 24 29 45 29 48 0 3 25 39 56 80 115 153 194 193 394 201 107 4 135 2 190 -15 115 -35 190 -84 205 -131 5 -16 10 -20 18 -12 12 12 -2 67 -33 136 -9 22 -20 47 -24 55 -3 8 -18 35 -33 60 -14 25 -33 59 -42 75 -9 17 -30 50 -46 75 -16 25 -50 87 -76 138 -42 84 -61 107 -176 220 -71 70 -158 152 -193 182 -35 30 -81 71 -101 90 -45 42 -118 103 -179 150 -64 49 -71 60 -65 98 l6 33 -20 -20 c-23 -23 -46 -27 -56 -11 -10 16 -32 11 -38 -9 -4 -17 -10 -18 -58 -10 -85 15 -200 39 -253 55 -26 8 -55 14 -62 14 -29 0 -147 64 -185 99 -51 49 -53 93 -6 191 31 66 34 70 87 88 100 34 144 41 265 39 110 -2 125 -4 174 -30 40 -20 57 -25 65 -17 8 9 2 19 -23 40 -41 35 -34 54 19 45 21 -4 41 -2 44 3 11 18 -5 40 -32 47 -15 3 -56 20 -92 37 -85 41 -98 45 -143 53 -50 8 -66 -3 -36 -26 l24 -17 -25 -6 c-46 -9 -125 -18 -152 -17 -14 1 -37 -3 -50 -8 -14 -5 -31 -6 -39 -1 -8 6 -19 4 -29 -4 -38 -34 -57 -30 -114 28 l-55 55 9 55 c15 92 94 215 231 357 127 132 161 152 174 102 5 -21 8 -24 16 -12 5 7 9 28 9 45 0 18 8 38 19 48 15 13 18 26 14 51 -3 19 0 49 7 67 6 18 15 56 20 83 8 47 12 71 45 240 14 67 27 159 45 310 5 39 12 80 15 93 5 15 -1 44 -17 85 -14 34 -33 89 -43 122 -50 172 -63 209 -100 290 -13 28 -34 77 -48 110 -41 95 -64 138 -69 129z m-708 -2878 c0 -20 -58 -42 -73 -27 -6 6 -26 11 -44 11 -31 0 -41 9 -26 23 3 4 37 7 75 7 51 0 68 -3 68 -14z"/> <path d="M4010 2473 c0 -13 47 -53 53 -46 4 3 -4 16 -16 29 -22 24 -37 30 -37 17z"/> </g> </svg> 