<?xml version="1.0" standalone="no"?>
<!DOCTYPE svg PUBLIC "-//W3C//DTD SVG 20010904//EN"
 "http://www.w3.org/TR/2001/REC-SVG-20010904/DTD/svg10.dtd">
<svg version="1.0" xmlns="http://www.w3.org/2000/svg"
 width="3072.000000pt" height="3072.000000pt" viewBox="0 0 3072.000000 3072.000000"
 preserveAspectRatio="xMidYMid meet">
<metadata>
Created by potrace 1.10, written by Peter Selinger 2001-2011
</metadata>
<g transform="translate(0.000000,3072.000000) scale(0.100000,-0.100000)"
fill="#f5f5f5" stroke="none">
<path d="M6950 27337 c0 -7 7 -37 16 -67 30 -102 -22 -316 -96 -395 -10 -11
-38 -30 -62 -42 -45 -22 -162 -48 -178 -38 -5 3 -43 10 -85 15 -75 9 -214 49
-267 76 -14 8 -38 14 -52 14 -14 0 -26 5 -26 10 0 6 -10 10 -21 10 -20 0 -19
-3 12 -33 72 -69 99 -159 99 -328 0 -144 -20 -237 -66 -305 -13 -19 -24 -39
-24 -43 0 -18 -103 -103 -148 -123 -96 -43 -240 -61 -417 -53 -129 6 -175 14
-227 42 -18 9 -34 11 -44 5 -14 -8 -12 -12 11 -30 15 -12 35 -22 45 -22 29 0
144 -115 202 -202 55 -82 128 -226 128 -251 0 -7 7 -22 15 -33 8 -10 15 -29
15 -41 0 -12 5 -34 12 -50 31 -75 40 -161 41 -383 0 -343 -28 -468 -162 -740
-56 -113 -62 -124 -103 -183 -16 -22 -28 -46 -28 -54 0 -7 -4 -13 -9 -13 -4 0
-22 -21 -38 -47 -26 -40 -162 -199 -272 -318 -36 -39 -138 -128 -189 -166 -22
-16 -51 -44 -65 -62 -37 -48 -266 -157 -331 -157 -12 0 -47 -9 -79 -20 -31
-11 -72 -20 -91 -20 -65 0 -113 -39 -60 -48 33 -6 39 -21 13 -31 -29 -10 -55
-38 -45 -48 3 -3 30 6 59 20 56 29 77 33 77 17 0 -20 -39 -52 -72 -60 -26 -6
-29 -9 -15 -15 30 -13 64 4 121 60 30 30 77 68 104 84 59 35 159 58 175 42 20
-20 90 -13 130 15 58 39 127 59 187 55 18 -1 -36 -51 -55 -51 -14 0 -107 -40
-115 -49 -3 -3 -21 -14 -40 -25 -99 -52 -150 -83 -200 -121 -30 -23 -68 -49
-85 -59 -16 -10 -42 -37 -57 -59 -15 -23 -50 -76 -78 -117 -27 -41 -50 -82
-50 -91 0 -8 -7 -24 -15 -35 -8 -10 -15 -29 -15 -42 0 -13 -6 -35 -13 -50 -22
-45 -21 -232 2 -337 30 -137 38 -166 55 -199 8 -17 24 -52 36 -78 12 -27 26
-50 31 -54 5 -3 20 -29 34 -57 14 -29 40 -71 58 -94 17 -23 52 -66 76 -97 24
-31 48 -56 53 -56 5 0 24 -15 41 -32 41 -42 112 -101 157 -133 143 -99 183
-125 250 -161 41 -23 100 -55 130 -73 30 -17 80 -43 110 -57 30 -14 62 -29 70
-34 8 -5 53 -29 100 -53 106 -54 176 -93 215 -118 17 -10 37 -22 45 -26 8 -4
20 -11 25 -15 6 -5 35 -27 65 -49 30 -22 71 -54 90 -72 20 -18 46 -41 59 -52
l23 -20 -18 35 c-23 42 -55 80 -68 80 -5 0 -30 18 -55 41 -78 70 -84 74 -149
115 -89 55 -130 78 -277 152 -71 36 -152 80 -180 98 -27 17 -70 42 -95 55
-136 73 -309 209 -441 346 -64 66 -149 172 -163 203 -7 16 -18 35 -57 95 -14
22 -28 49 -31 60 -4 11 -16 45 -28 75 -40 102 -54 187 -54 325 1 191 35 304
118 393 39 43 62 55 86 47 17 -5 18 -9 7 -28 -7 -12 -19 -27 -27 -33 -8 -7
-11 -16 -7 -21 5 -4 14 -1 20 8 7 8 20 18 30 22 15 5 17 13 11 42 -4 23 -2 35
5 35 6 0 11 -9 11 -20 0 -34 35 -23 96 30 36 31 70 52 93 56 20 4 49 13 65 21
36 19 244 12 351 -11 101 -22 177 -44 189 -56 5 -5 21 -10 35 -10 15 0 35 -7
45 -15 11 -8 30 -15 42 -15 12 0 27 -7 34 -15 7 -8 20 -15 29 -15 9 -1 59 -23
111 -50 52 -27 130 -66 172 -87 43 -21 78 -44 78 -50 0 -7 6 -13 14 -13 8 0
32 -17 54 -37 21 -21 70 -67 108 -103 61 -57 109 -108 179 -191 36 -42 115
-186 115 -209 0 -4 14 -35 30 -68 17 -34 30 -70 30 -81 0 -11 8 -40 17 -63 15
-35 18 -74 18 -218 0 -179 -11 -246 -50 -323 -8 -16 -15 -33 -15 -38 0 -13
-73 -119 -82 -119 -4 0 -8 -7 -8 -15 0 -19 24 -19 40 0 6 8 21 17 32 21 19 6
66 37 225 149 103 71 172 90 338 90 139 0 182 -8 245 -46 8 -5 21 -12 29 -16
27 -12 136 -132 156 -170 11 -21 26 -44 32 -51 7 -7 13 -21 13 -31 0 -9 5 -22
10 -27 6 -6 15 -33 20 -60 5 -27 14 -69 19 -94 15 -65 12 -169 -4 -215 -8 -22
-15 -48 -15 -58 0 -25 24 -16 28 11 2 11 10 26 18 32 8 7 14 18 14 24 0 17 30
72 78 144 23 35 42 66 42 68 0 10 92 128 134 172 53 57 150 132 170 132 8 0
17 4 20 9 3 4 36 19 73 32 63 22 82 24 278 24 218 0 261 -6 365 -54 97 -45
190 -112 190 -137 0 -6 7 -17 15 -24 8 -7 15 -24 15 -39 0 -14 4 -32 9 -40 18
-28 22 27 7 74 -9 25 -16 54 -16 63 0 48 -109 283 -178 386 -18 26 -32 49 -32
52 0 3 -33 60 -73 127 -40 67 -88 154 -106 192 -56 118 -65 135 -75 135 -5 0
-104 94 -220 208 -202 199 -377 361 -481 447 -27 22 -69 58 -94 79 -25 22 -76
61 -112 88 -38 27 -72 60 -79 78 -11 26 -9 34 13 75 32 56 19 58 -30 5 -40
-43 -63 -49 -83 -25 -7 8 -19 15 -26 15 -8 0 -14 5 -14 10 0 6 -8 10 -17 10
-17 -1 -17 -1 0 -14 9 -7 17 -18 17 -24 0 -20 -32 -43 -49 -36 -9 4 -54 13
-101 20 -121 19 -309 61 -420 92 -161 46 -277 118 -327 202 -38 63 -41 95 -13
147 11 21 20 43 20 50 0 7 9 17 19 23 13 6 22 26 27 55 7 52 43 85 91 85 17 0
38 9 48 20 10 11 31 20 47 20 16 0 38 5 48 10 14 8 25 7 40 -2 17 -11 22 -10
30 2 5 8 26 16 47 17 176 9 214 9 253 2 94 -17 146 -33 189 -61 45 -30 74 -30
86 0 7 18 2 22 -69 64 -25 15 -46 35 -46 44 0 14 11 16 83 13 l82 -4 0 30 c0
27 -4 31 -35 35 -19 3 -78 26 -130 52 -176 86 -208 98 -220 83 -9 -11 -20 -9
-60 11 -50 25 -70 30 -70 16 0 -12 34 -42 47 -42 6 0 18 -11 26 -24 16 -23 16
-23 -30 -30 -25 -3 -60 -6 -77 -6 -18 0 -38 -6 -44 -12 -10 -10 -17 -10 -32 0
-17 10 -21 10 -26 -2 -4 -11 -20 -13 -69 -9 -38 2 -66 0 -70 -6 -9 -16 -42
-13 -49 4 -9 23 -26 18 -23 -7 2 -20 -2 -23 -30 -20 -24 1 -33 -2 -33 -13 0
-21 -27 -30 -45 -15 -8 7 -15 25 -15 41 0 24 -4 28 -32 31 -28 2 -34 8 -38 33
-4 21 -12 31 -30 35 -24 6 -25 8 -22 81 3 71 10 92 55 184 23 45 80 128 147
213 24 31 49 63 55 71 21 30 221 227 259 256 59 45 79 41 91 -20 13 -59 25
-41 25 37 0 51 24 97 57 109 13 4 17 23 18 85 2 94 12 163 31 222 8 23 14 56
14 72 0 17 5 38 10 48 6 9 17 60 25 112 8 52 22 131 31 175 9 44 18 120 21
170 2 49 8 94 12 100 5 5 11 50 15 98 4 48 14 106 22 129 20 58 18 90 -14 160
-16 35 -36 88 -45 118 -30 99 -59 194 -83 267 -13 39 -24 80 -24 90 0 11 -7
28 -15 39 -8 10 -15 25 -15 33 0 8 -16 49 -36 90 -20 42 -40 85 -45 96 -27 64
-101 222 -109 235 -6 8 -14 25 -20 38 -10 24 -30 30 -30 9z m-1225 -3362 c0
-27 -4 -35 -18 -35 -29 0 -33 31 -8 52 13 10 24 18 25 18 0 0 1 -16 1 -35z
m45 -20 c0 -8 -7 -15 -16 -15 -14 0 -14 3 -4 15 7 8 14 15 16 15 2 0 4 -7 4
-15z m-133 -31 c2 -5 -13 -18 -32 -27 -44 -21 -46 -21 -38 1 12 36 61 54 70
26z m266 -838 c8 -20 -12 -33 -47 -32 -37 1 -48 26 -12 26 13 0 28 5 31 10 9
14 22 12 28 -4z m55 -24 c4 -26 -22 -31 -32 -6 -10 26 -7 36 12 32 9 -2 18
-13 20 -26z m-59 -57 c27 -26 21 -45 -13 -45 -15 0 -26 7 -29 20 -3 12 -14 20
-26 20 -31 0 -26 -27 9 -45 17 -9 30 -20 30 -25 0 -13 -15 -13 -38 0 -39 21
-89 39 -117 42 -19 2 -30 9 -30 18 0 11 11 15 43 15 23 0 46 5 50 11 19 30 85
24 121 -11z m-1142 -31 c-3 -4 -14 -3 -24 0 -15 6 -15 8 -3 16 16 10 39 -4 27
-16z m1703 -474 c0 -13 -37 -13 -45 0 -3 6 -3 15 0 20 7 12 45 -5 45 -20z"/>
<path d="M6172 20758 c2 -6 10 -14 16 -16 7 -2 10 2 6 12 -7 18 -28 22 -22 4z"/>
<path d="M6210 20703 c0 -13 5 -23 10 -23 13 0 13 11 0 30 -8 12 -10 11 -10
-7z"/>
</g>
</svg>
